<svg width="68" height="68" viewBox="0 0 68 68" fill="none" xmlns="http://www.w3.org/2000/svg">
<g filter="url(#filter0_d_175_383)">
<rect x="10" y="6" width="48" height="48" rx="24" fill="white" shape-rendering="crispEdges"/>
<path d="M40.4 37.3601C43.9346 37.3601 46.8 34.4947 46.8 30.9601C46.8 27.4254 43.9346 24.5601 40.4 24.5601C36.8654 24.5601 34 27.4254 34 30.9601C34 34.4947 36.8654 37.3601 40.4 37.3601Z" fill="#19BCFE"/>
<path fill-rule="evenodd" clip-rule="evenodd" d="M27.5992 50.1601C29.2966 50.1601 30.9245 49.4858 32.1247 48.2856C33.3249 47.0854 33.9992 45.4575 33.9992 43.7601V37.3601H27.5992C25.9018 37.3601 24.274 38.0344 23.0737 39.2346C21.8735 40.4349 21.1992 42.0627 21.1992 43.7601C21.1992 45.4575 21.8735 47.0854 23.0737 48.2856C24.274 49.4858 25.9018 50.1601 27.5992 50.1601Z" fill="#09CF83"/>
<path fill-rule="evenodd" clip-rule="evenodd" d="M27.5992 37.3601H33.9992V24.5601H27.5992C25.9018 24.5601 24.274 25.2343 23.0737 26.4346C21.8735 27.6348 21.1992 29.2627 21.1992 30.9601C21.1992 32.6574 21.8735 34.2853 23.0737 35.4855C24.274 36.6858 25.9018 37.3601 27.5992 37.3601Z" fill="#A259FF"/>
<path fill-rule="evenodd" clip-rule="evenodd" d="M27.5992 24.56H33.9992V11.76H27.5992C25.9018 11.76 24.274 12.4343 23.0737 13.6345C21.8735 14.8348 21.1992 16.4626 21.1992 18.16C21.1992 19.8574 21.8735 21.4853 23.0737 22.6855C24.274 23.8857 25.9018 24.56 27.5992 24.56Z" fill="#F24E1E"/>
<path fill-rule="evenodd" clip-rule="evenodd" d="M40.4 24.56H34V11.76H40.4C42.0974 11.76 43.7253 12.4343 44.9255 13.6345C46.1257 14.8348 46.8 16.4626 46.8 18.16C46.8 19.8574 46.1257 21.4853 44.9255 22.6855C43.7253 23.8857 42.0974 24.56 40.4 24.56Z" fill="#FF7262"/>
</g>
<defs>
<filter id="filter0_d_175_383" x="0" y="0" width="68" height="68" filterUnits="userSpaceOnUse" color-interpolation-filters="sRGB">
<feFlood flood-opacity="0" result="BackgroundImageFix"/>
<feColorMatrix in="SourceAlpha" type="matrix" values="0 0 0 0 0 0 0 0 0 0 0 0 0 0 0 0 0 0 127 0" result="hardAlpha"/>
<feOffset dy="4"/>
<feGaussianBlur stdDeviation="5"/>
<feComposite in2="hardAlpha" operator="out"/>
<feColorMatrix type="matrix" values="0 0 0 0 0 0 0 0 0 0 0 0 0 0 0 0 0 0 0.2 0"/>
<feBlend mode="normal" in2="BackgroundImageFix" result="effect1_dropShadow_175_383"/>
<feBlend mode="normal" in="SourceGraphic" in2="effect1_dropShadow_175_383" result="shape"/>
</filter>
</defs>
</svg>
