<svg width="68" height="68" viewBox="0 0 68 68" fill="none" xmlns="http://www.w3.org/2000/svg">
<g filter="url(#filter0_d_175_436)">
<g clip-path="url(#clip0_175_436)">
<path d="M10 30C10 43.2548 20.7452 54 34 54C47.2548 54 58 43.2548 58 30C58 16.7452 47.2548 6 34 6C20.7452 6 10 16.7452 10 30Z" fill="#FFD02F"/>
<path d="M39.9506 16.24H35.9913L39.5063 21.7518L32.0755 16.24H28.1163L31.6312 23.462L24.1995 16.24H20.2402L23.6972 25.5641L20.2402 43.76H24.1995L31.6312 24.2497L28.1163 43.76H32.0755L39.5063 22.5395L35.9913 43.76H39.9506L47.4402 20.4501L39.9506 16.24Z" fill="#050038"/>
</g>
</g>
<defs>
<filter id="filter0_d_175_436" x="0" y="0" width="68" height="68" filterUnits="userSpaceOnUse" color-interpolation-filters="sRGB">
<feFlood flood-opacity="0" result="BackgroundImageFix"/>
<feColorMatrix in="SourceAlpha" type="matrix" values="0 0 0 0 0 0 0 0 0 0 0 0 0 0 0 0 0 0 127 0" result="hardAlpha"/>
<feOffset dy="4"/>
<feGaussianBlur stdDeviation="5"/>
<feComposite in2="hardAlpha" operator="out"/>
<feColorMatrix type="matrix" values="0 0 0 0 0 0 0 0 0 0 0 0 0 0 0 0 0 0 0.2 0"/>
<feBlend mode="normal" in2="BackgroundImageFix" result="effect1_dropShadow_175_436"/>
<feBlend mode="normal" in="SourceGraphic" in2="effect1_dropShadow_175_436" result="shape"/>
</filter>
<clipPath id="clip0_175_436">
<rect x="10" y="6" width="48" height="48" rx="24" fill="white"/>
</clipPath>
</defs>
</svg>
