<svg width="444" height="393" viewBox="0 0 444 393" fill="none" xmlns="http://www.w3.org/2000/svg">
<g clip-path="url(#clip0_655_2515)">
<g clip-path="url(#clip1_655_2515)">
<path d="M-93.1426 289.901C-61.0937 347.541 93.3608 344.695 93.3608 344.695L113.821 289.901C113.821 289.901 -91.1769 290.966 -93.1426 289.901Z" fill="#F5F5F5"/>
<path d="M542.589 289.901C510.54 347.541 378.431 344.695 378.431 344.695L350.367 289.901C350.367 289.901 540.623 290.966 542.58 289.901H542.589Z" fill="#F5F5F5"/>
<path d="M318.096 12.2617L319.043 13.9981C319.401 14.6515 319.937 15.1974 320.598 15.5554L322.331 16.5042L320.598 17.4529C319.946 17.8109 319.401 18.3479 319.043 19.0103L318.096 20.7466L317.149 19.0103C316.792 18.3569 316.256 17.8109 315.595 17.4529L313.861 16.5042L315.595 15.5554C316.247 15.1974 316.792 14.6604 317.149 13.9981L318.096 12.2617Z" fill="#EBEBEB"/>
<path d="M393.29 57.2285L394.237 58.9649C394.594 59.6183 395.13 60.1642 395.792 60.5222L397.525 61.471L395.792 62.4197C395.139 62.7777 394.594 63.3147 394.237 63.9771L393.29 65.7134L392.343 63.9771C391.985 63.3237 391.449 62.7777 390.788 62.4197L389.055 61.471L390.788 60.5222C391.44 60.1642 391.976 59.6272 392.343 58.9649L393.29 57.2285Z" fill="#EBEBEB"/>
<path d="M113.902 5.77295L115.528 8.74446C116.136 9.86325 117.056 10.7851 118.182 11.4027L121.148 13.0317L118.182 14.6606C117.065 15.2692 116.145 16.1911 115.528 17.3189L113.902 20.2904L112.276 17.3189C111.669 16.2001 110.748 15.2782 109.623 14.6606L106.656 13.0317L109.623 11.4027C110.739 10.7941 111.66 9.8722 112.276 8.74446L113.902 5.77295Z" fill="#EBEBEB"/>
<path d="M103.215 64.2544L104.501 66.6173C104.984 67.5123 105.717 68.2373 106.61 68.7296L108.969 70.0184L106.61 71.3073C105.717 71.7906 104.993 72.5245 104.501 73.4195L103.215 75.7824L101.928 73.4195C101.446 72.5245 100.713 71.7995 99.8197 71.3073L97.4609 70.0184L99.8197 68.7296C100.713 68.2462 101.437 67.5123 101.928 66.6173L103.215 64.2544Z" fill="#EBEBEB"/>
<path d="M162.775 166.718L164.062 169.081C164.545 169.976 165.277 170.701 166.171 171.193L168.529 172.482L166.171 173.771C165.277 174.254 164.553 174.988 164.062 175.883L162.775 178.246L161.489 175.883C161.006 174.988 160.274 174.263 159.38 173.771L157.021 172.482L159.38 171.193C160.274 170.71 160.997 169.976 161.489 169.081L162.775 166.718Z" fill="#EBEBEB"/>
<path d="M412.768 269.584L414.054 271.947C414.537 272.842 415.269 273.567 416.163 274.059L418.522 275.348L416.163 276.637C415.269 277.12 414.546 277.854 414.054 278.749L412.768 281.112L411.481 278.749C410.999 277.854 410.266 277.129 409.372 276.637L407.014 275.348L409.372 274.059C410.266 273.576 410.99 272.842 411.481 271.947L412.768 269.584Z" fill="#EBEBEB"/>
<path d="M338.305 377.489L332.354 363.168H295.418L279.461 373.309L288.869 384.345L338.305 377.489Z" fill="#EBEBEB"/>
<path d="M269.215 373.757L286.486 363.168H226.033L231.099 373.757H269.215Z" fill="#EBEBEB"/>
<path d="M279.461 384.345L275.771 377.784L245.786 378.975L239.434 387.925L265.943 393L279.461 384.345Z" fill="#EBEBEB"/>
<path d="M233.778 386.341L237.942 377.784H221.868L201.908 386.341L226.032 393L233.778 386.341Z" fill="#EBEBEB"/>
<path d="M219.93 366.211L223.182 370.919L195.958 384.345L169.064 373.757L219.93 366.211Z" fill="#EBEBEB"/>
<path d="M346.017 375.278L341.711 364.502L370.409 363.168L391.486 367.993L374.439 375.278H344.391" fill="#EBEBEB"/>
<path d="M162.31 371.6L204.098 364.708L159.29 360.582L132.021 368.458L162.31 371.6Z" fill="#EBEBEB"/>
<path d="M515.778 355.337C515.778 355.463 384.492 355.57 222.568 355.57C60.6436 355.57 -70.6699 355.463 -70.6699 355.337C-70.6699 355.212 60.59 355.104 222.568 355.104C384.545 355.104 515.778 355.212 515.778 355.337Z" fill="#263238"/>
<path d="M-100.406 147.743C-100.406 147.743 491.76 143.975 532.583 153.453L-100.406 164.588V147.743Z" fill="#FF725E"/>
<path d="M46.5871 44.1069C48.9816 45.5658 270.893 59.2956 304.425 57.5324C337.957 55.7603 376.296 50.9002 376.296 50.9002L46.5781 44.1069H46.5871Z" fill="#FF725E"/>
<path d="M169.297 21.8477C169.297 21.8477 222.039 30.0014 238.979 29.4107C258.171 28.7394 290.282 25.6515 290.282 25.6515L169.297 21.8477Z" fill="#FF725E"/>
<path d="M40.5202 93.7276L542.178 97.9432V81.5283L-100.291 86.2272V92.5372H-99.9694L-97.9144 132.474L545.403 134.774V120.588L40.5202 93.7276Z" fill="#FF725E"/>
<path d="M-102.971 263.292V235.886L541.902 211.639V263.292H-102.971Z" fill="#FF725E"/>
<path d="M-102.971 201.427V181.405H182.315L542.992 185.2L542.777 203.351L-102.971 201.427Z" fill="#FF725E"/>
<path opacity="0.6" d="M-100.406 147.743C-100.406 147.743 491.76 143.975 532.583 153.453L-100.406 164.588V147.743Z" fill="white"/>
<path opacity="0.4" d="M46.5871 44.1069C48.9816 45.5658 270.893 59.2956 304.425 57.5324C337.957 55.7603 376.296 50.9002 376.296 50.9002L46.5781 44.1069H46.5871Z" fill="white"/>
<path opacity="0.3" d="M169.297 21.8477C169.297 21.8477 222.039 30.0014 238.979 29.4107C258.171 28.7394 290.282 25.6515 290.282 25.6515L169.297 21.8477Z" fill="white"/>
<path opacity="0.5" d="M40.5202 93.7276L542.178 97.9432V81.5283L-100.291 86.2272V92.5372H-99.9694L-97.9144 132.474L545.403 134.774V120.588L40.5202 93.7276Z" fill="white"/>
<path opacity="0.8" d="M-102.971 263.292V235.886L541.902 211.639V263.292H-102.971Z" fill="white"/>
<path opacity="0.7" d="M-102.971 201.427V181.405H182.315L542.992 185.2L542.777 203.351L-102.971 201.427Z" fill="white"/>
<path d="M343.783 252.515L241.561 252.748C241.561 252.748 250.898 249.615 273.288 246.617C278.98 245.856 312.467 244.854 340.978 244.129C324.52 200.577 282.509 169.608 233.27 169.608C190.428 169.608 153.045 193.049 133.219 227.83L230.911 232.297L127.759 238.723C121.577 252.873 118.137 268.501 118.137 284.942H348.411C348.411 273.683 346.794 262.808 343.792 252.515H343.783Z" fill="#FF725E"/>
<path d="M343.783 252.515L241.561 252.748C241.561 252.748 250.898 249.615 273.288 246.617C278.98 245.856 312.467 244.854 340.978 244.129C324.52 200.577 282.509 169.608 233.27 169.608C190.428 169.608 153.045 193.049 133.219 227.83L230.911 232.297L127.759 238.723C121.577 252.873 118.137 268.501 118.137 284.942H348.411C348.411 273.683 346.794 262.808 343.792 252.515H343.783Z" fill="#FF725E"/>
<path opacity="0.6" d="M127.759 238.723C121.577 252.873 118.137 268.5 118.137 284.942C118.137 284.942 121.371 262.745 134.175 238.32L127.759 238.723Z" fill="white"/>
<path opacity="0.6" d="M233.27 169.608C190.428 169.608 153.045 193.049 133.219 227.83L140.036 228.144C156.244 202.492 183.762 177.422 229.785 175.462C287.048 173.018 318.141 212.158 333.946 244.317C336.314 244.254 338.655 244.191 340.978 244.129C324.52 200.577 282.509 169.608 233.27 169.608Z" fill="white"/>
<path opacity="0.6" d="M337.744 252.533C345.616 270.72 348.403 284.942 348.403 284.942C348.403 273.683 346.786 262.808 343.784 252.515L337.744 252.533Z" fill="white"/>
<path d="M324.135 214.118C324.135 214.118 324.001 213.975 323.751 213.68C323.492 213.367 323.126 212.937 322.652 212.364C322.17 211.782 321.58 211.057 320.874 210.216C320.526 209.787 320.15 209.33 319.748 208.838C319.337 208.354 318.855 207.88 318.372 207.352C317.39 206.305 316.309 205.141 315.12 203.879C313.905 202.635 312.484 201.382 311.019 199.977C309.581 198.536 307.847 197.211 306.087 195.735C304.354 194.213 302.353 192.817 300.289 191.313C298.26 189.747 295.946 188.395 293.605 186.874C292.453 186.086 291.184 185.424 289.924 184.717C288.656 184.01 287.369 183.294 286.056 182.569C284.697 181.915 283.322 181.253 281.928 180.582C281.231 180.241 280.525 179.91 279.81 179.561C279.078 179.257 278.345 178.962 277.603 178.657C276.12 178.049 274.619 177.44 273.091 176.814C271.537 176.285 269.955 175.748 268.356 175.202C255.543 170.969 240.596 168.687 225.031 169.823C217.258 170.477 209.753 171.873 202.659 173.806C200.899 174.334 199.156 174.862 197.423 175.381C195.708 175.945 194.046 176.599 192.384 177.189C191.562 177.503 190.713 177.771 189.918 178.12C189.114 178.469 188.319 178.809 187.523 179.159C186.728 179.499 185.942 179.839 185.156 180.179L183.985 180.689L182.851 181.253C181.341 182.014 179.849 182.757 178.383 183.499C176.909 184.242 175.542 185.11 174.139 185.889C171.325 187.42 168.796 189.237 166.259 190.857C165.008 191.689 163.855 192.62 162.685 193.47C162.104 193.9 161.523 194.329 160.952 194.759L160.103 195.394L159.299 196.066C158.227 196.961 157.181 197.838 156.154 198.706C155.644 199.136 155.135 199.565 154.635 199.986C154.161 200.433 153.688 200.881 153.223 201.32C151.374 203.092 149.551 204.703 148.023 206.43C146.468 208.131 144.905 209.643 143.654 211.254C142.367 212.83 141.125 214.262 140.062 215.631C139.035 217.036 138.097 218.325 137.257 219.48C136.837 220.062 136.426 220.599 136.068 221.127C135.729 221.664 135.407 222.165 135.112 222.63C134.523 223.552 134.022 224.34 133.611 224.975C133.209 225.602 132.897 226.076 132.682 226.416C132.468 226.738 132.352 226.9 132.352 226.9C132.352 226.9 132.441 226.721 132.646 226.389C132.852 226.049 133.156 225.557 133.54 224.922C133.942 224.277 134.433 223.481 135.005 222.55C135.3 222.084 135.613 221.574 135.943 221.037C136.292 220.509 136.703 219.963 137.114 219.381C137.945 218.218 138.874 216.92 139.892 215.497C140.947 214.11 142.18 212.669 143.457 211.084C144.699 209.464 146.263 207.934 147.809 206.224C149.336 204.488 151.159 202.859 153 201.069C153.464 200.63 153.929 200.183 154.411 199.726C154.912 199.297 155.421 198.867 155.93 198.438C156.958 197.569 158.003 196.683 159.075 195.779L159.879 195.099L160.728 194.464C161.3 194.034 161.881 193.604 162.462 193.166C163.632 192.307 164.794 191.376 166.044 190.534C168.573 188.896 171.11 187.071 173.934 185.531C175.337 184.744 176.712 183.866 178.187 183.124C179.661 182.381 181.153 181.629 182.672 180.859L183.816 180.286L184.995 179.776C185.781 179.436 186.576 179.087 187.372 178.747C188.167 178.398 188.971 178.058 189.775 177.709C190.579 177.351 191.419 177.091 192.25 176.769C193.921 176.169 195.592 175.516 197.307 174.943C199.04 174.424 200.792 173.896 202.561 173.359C209.673 171.408 217.214 170.002 225.014 169.349C240.64 168.203 255.651 170.504 268.508 174.782C270.107 175.328 271.697 175.874 273.261 176.411C274.789 177.037 276.299 177.655 277.782 178.263C278.524 178.568 279.256 178.872 279.989 179.176C280.704 179.525 281.41 179.866 282.106 180.206C283.509 180.886 284.885 181.548 286.243 182.211C287.557 182.944 288.852 183.669 290.121 184.377C291.39 185.093 292.649 185.764 293.811 186.551C296.152 188.091 298.466 189.451 300.494 191.036C302.558 192.557 304.55 193.962 306.284 195.502C308.044 196.997 309.768 198.33 311.207 199.789C312.672 201.203 314.084 202.474 315.29 203.727C316.469 205.007 317.55 206.18 318.524 207.236C319.007 207.764 319.48 208.247 319.882 208.739C320.276 209.232 320.651 209.697 320.999 210.127C321.687 210.986 322.268 211.711 322.742 212.311C323.206 212.892 323.555 213.34 323.805 213.653C324.046 213.957 324.153 214.118 324.153 214.118H324.135Z" fill="white"/>
<path d="M120.12 242.411C120.12 242.411 119.798 242.572 119.191 242.786C118.592 243.001 117.717 243.323 116.653 243.735C114.518 244.568 111.623 245.838 108.594 247.575C108.407 247.682 108.21 247.799 108.031 247.897L107.862 247.996L107.736 247.852C105.512 245.355 103.287 243.332 101.634 241.936C99.9722 240.54 98.9 239.752 98.9447 239.699C98.9626 239.672 99.2485 239.842 99.7578 240.173C100.267 240.504 100.982 241.014 101.84 241.686C103.564 243.019 105.842 245.024 108.094 247.539L107.799 247.494C107.978 247.387 108.174 247.279 108.362 247.172C111.418 245.418 114.366 244.183 116.537 243.431C117.627 243.055 118.521 242.786 119.137 242.616C119.763 242.455 120.111 242.384 120.12 242.411Z" fill="#263238"/>
<path d="M391.066 200.174C391.093 200.246 389.708 200.729 387.617 201.812C385.527 202.895 382.757 204.667 380.175 207.191L380.014 207.352L379.853 207.191C379.8 207.138 379.746 207.084 379.692 207.03C377.083 204.426 374.742 202.054 373.063 200.317C372.285 199.503 371.624 198.805 371.088 198.25C370.633 197.758 370.391 197.471 370.409 197.444C370.436 197.418 370.722 197.659 371.213 198.125C371.776 198.653 372.473 199.315 373.286 200.094C375.028 201.767 377.405 204.103 380.014 206.708C380.068 206.762 380.121 206.815 380.175 206.869H379.844C382.471 204.3 385.321 202.546 387.466 201.535C388.538 201.025 389.44 200.667 390.066 200.461C390.691 200.246 391.048 200.156 391.057 200.183L391.066 200.174Z" fill="#263238"/>
<path d="M91.1269 252.328C91.1269 252.328 90.9839 252.596 90.6891 253.062C90.3317 253.608 89.9117 254.252 89.4114 255.013C88.8664 255.836 88.1963 256.812 87.4011 257.877C86.5969 258.924 85.6767 260.079 84.4794 261.108L84.3454 261.224L84.2024 261.126C83.9255 260.938 83.6217 260.741 83.3179 260.544C80.5482 258.664 78.2966 256.624 76.7866 255.04C76.0272 254.252 75.4554 253.581 75.0622 253.106C74.678 252.632 74.4815 252.354 74.5083 252.337C74.5619 252.292 75.4554 253.303 77.0189 254.807C78.5736 256.319 80.8341 258.298 83.577 260.159C83.8719 260.356 84.1667 260.553 84.4437 260.741L84.1667 260.759C85.3193 259.783 86.2396 258.656 87.0616 257.626C87.8746 256.588 88.5626 255.639 89.1434 254.843C90.2959 253.241 91.0643 252.292 91.109 252.337L91.1269 252.328Z" fill="#263238"/>
<path fill-rule="evenodd" clip-rule="evenodd" d="M-45.5376 152.361C-45.4125 152.37 -45.2963 152.379 -45.1623 152.388C-45.1623 152.388 -45.1713 152.37 -45.1891 152.325C-45.8682 150.893 -57.8139 125.054 -45.8414 119.182C-33.5293 113.141 -15.7492 125.197 -15.7492 125.197C-15.7492 125.197 -26.9444 75.9254 4.70236 67.9148C36.3581 59.9132 54.7547 117.688 54.7547 117.688C54.7547 117.688 71.1052 106.518 79.1286 130.03C79.1286 130.03 117.262 117.706 120.193 160.094C120.193 160.094 132.871 152.191 131.441 163.809L131.147 165.59L-46.1809 161.983C-46.1809 161.983 -54.1596 152.048 -45.5286 152.352L-45.5376 152.361Z" fill="#FF725E"/>
<path opacity="0.2" fill-rule="evenodd" clip-rule="evenodd" d="M131.45 160.828C131.45 160.828 130.976 164.516 123.811 163.88L119.808 162.385C119.808 162.385 101.206 166.431 91.0917 162.385C74.6339 155.798 76.9391 142.999 76.9391 142.999C76.9391 142.999 76.0992 162.904 65.5652 158.68C55.0401 154.464 54.8346 140.027 54.8346 140.027C54.8346 140.027 50.3226 152.271 35.5892 155.225C20.8469 158.179 -11.1483 138.56 -11.1483 138.56C-11.1483 138.56 -4.83146 152.477 -17.0452 155.01C-29.259 157.543 -43.1525 154.169 -43.1525 154.169C-43.1525 154.169 -41.2404 160.926 -46.1992 161.983L131.128 165.59L131.441 160.819L131.45 160.828Z" fill="black"/>
<path d="M79.5664 131.57C79.5664 131.57 79.7451 131.462 80.1114 131.31C80.4777 131.167 81.0049 130.898 81.7197 130.666C83.1313 130.147 85.2489 129.565 87.9293 129.261C90.6008 128.947 93.853 128.992 97.3554 129.726C100.849 130.451 104.575 131.919 107.97 134.273C111.338 136.671 114.001 139.67 115.868 142.713C117.753 145.756 118.906 148.799 119.522 151.431C120.148 154.062 120.336 156.246 120.327 157.758C120.362 158.51 120.282 159.092 120.273 159.495C120.246 159.889 120.228 160.094 120.21 160.094C120.166 160.094 120.202 159.262 120.148 157.767C120.103 156.273 119.871 154.107 119.21 151.52C118.558 148.933 117.387 145.944 115.511 142.955C113.643 139.965 111.026 137.029 107.711 134.667C104.369 132.357 100.715 130.89 97.275 130.156C93.8262 129.413 90.6186 129.332 87.974 129.601C85.3204 129.86 83.2118 130.388 81.7911 130.854C80.3705 131.31 79.6021 131.632 79.5843 131.588L79.5664 131.57Z" fill="white"/>
<path d="M70.3359 119.066C70.3359 119.066 71.1758 119.325 72.3284 120.14C73.481 120.945 74.9105 122.324 76.0095 124.186C77.1084 126.047 77.6267 127.971 77.7786 129.368C77.9305 130.773 77.8054 131.641 77.7607 131.632C77.6803 131.632 77.6892 130.764 77.4569 129.412C77.2246 128.061 76.6796 126.226 75.6163 124.418C74.5531 122.619 73.2129 121.25 72.1407 120.4C71.0686 119.54 70.3091 119.138 70.3449 119.066H70.3359Z" fill="white"/>
<path d="M19.3457 69.9912C19.3457 69.9912 19.5512 70.0897 19.9175 70.3045C20.3196 70.5551 20.8557 70.8862 21.5168 71.289C21.8653 71.5128 22.2495 71.7544 22.6694 72.014C23.0804 72.2914 23.5093 72.6137 23.9828 72.9538C24.921 73.643 26.0199 74.3769 27.1279 75.3256C27.6907 75.791 28.2894 76.2743 28.9059 76.7756C29.5223 77.2857 30.112 77.8675 30.7553 78.4403C32.0509 79.5681 33.3107 80.9106 34.6598 82.289C37.2777 85.1262 39.967 88.4289 42.442 92.1433C44.8811 95.8845 46.8646 99.6526 48.455 103.179C49.1966 104.969 49.9293 106.652 50.4653 108.29C50.7423 109.104 51.0461 109.874 51.2695 110.644C51.4928 111.404 51.7073 112.147 51.9038 112.845C52.3416 114.242 52.5829 115.539 52.8509 116.667C52.976 117.231 53.1011 117.759 53.1994 118.242C53.2798 118.726 53.3513 119.173 53.4138 119.585C53.5299 120.355 53.6282 120.972 53.6997 121.447C53.7622 121.876 53.7801 122.1 53.7712 122.1C53.7533 122.1 53.6997 121.885 53.6104 121.465C53.521 120.999 53.3959 120.391 53.244 119.621C53.1636 119.218 53.0832 118.771 52.9849 118.287C52.8777 117.804 52.7348 117.285 52.6007 116.721C52.3148 115.602 52.0468 114.313 51.5911 112.926C51.3767 112.228 51.1622 111.503 50.9299 110.742C50.6976 109.981 50.3849 109.221 50.108 108.406C49.5629 106.786 48.8214 105.112 48.0708 103.34C46.4715 99.8406 44.488 96.0993 42.0667 92.3939C39.6007 88.7064 36.9382 85.4126 34.356 82.5754C33.0248 81.197 31.7828 79.8545 30.4962 78.7178C29.8619 78.145 29.2811 77.5542 28.6736 77.0441C28.066 76.5339 27.4852 76.0506 26.9223 75.5762C25.8323 74.6185 24.7512 73.8667 23.8309 73.1596C23.3663 72.8195 22.9464 72.4794 22.5443 72.193C22.1333 71.9155 21.767 71.6649 21.4186 71.4412C20.7753 71.0026 20.266 70.6446 19.8728 70.385C19.5244 70.1344 19.3457 70.0002 19.3457 69.9912Z" fill="white"/>
<path d="M127.144 158.42C127.135 158.367 127.43 158.25 127.939 158.259C128.439 158.259 129.154 158.447 129.797 158.877C130.45 159.315 130.878 159.906 131.075 160.372C131.272 160.837 131.28 161.159 131.227 161.168C131.102 161.213 130.735 160.04 129.538 159.262C128.368 158.447 127.144 158.555 127.135 158.42H127.144Z" fill="white"/>
<path fill-rule="evenodd" clip-rule="evenodd" d="M506.772 157.096C506.629 157.105 506.486 157.114 506.343 157.123C506.343 157.123 506.352 157.105 506.379 157.051C507.165 155.387 521.032 125.394 507.138 118.583C492.843 111.575 472.212 125.564 472.212 125.564C472.212 125.564 483.238 72.6767 446.489 63.3773C409.75 54.0868 390.361 116.847 390.361 116.847C390.361 116.847 371.375 103.878 362.065 131.176C362.065 131.176 317.794 116.873 314.398 166.073C314.398 166.073 299.674 156.899 301.336 170.387L301.675 172.455L507.531 168.275C507.531 168.275 516.797 156.738 506.772 157.096Z" fill="#FF725E"/>
<path opacity="0.2" fill-rule="evenodd" clip-rule="evenodd" d="M301.309 166.932C301.309 166.932 301.863 171.211 310.172 170.477L314.818 168.749C314.818 168.749 336.413 173.448 348.153 168.749C367.256 161.106 364.584 146.239 364.584 146.239C364.584 146.239 365.558 169.34 377.781 164.444C390.004 159.548 390.245 142.793 390.245 142.793C390.245 142.793 395.481 157.006 412.591 160.434C429.701 163.862 466.851 141.093 466.851 141.093C466.851 141.093 459.516 157.248 473.695 160.193C487.874 163.137 504.002 159.217 504.002 159.217C504.002 159.217 501.786 167.067 507.54 168.284L301.684 172.464L301.318 166.932H301.309Z" fill="black"/>
<path d="M361.537 132.966C361.537 132.966 361.305 132.903 360.867 132.751C360.429 132.617 359.813 132.33 358.982 132.098C357.338 131.552 354.881 130.943 351.798 130.63C350.262 130.469 348.555 130.442 346.741 130.505C344.928 130.63 342.989 130.818 340.987 131.274C336.994 132.125 332.741 133.825 328.854 136.51C325.003 139.249 321.956 142.668 319.794 146.141C318.686 147.868 317.846 149.631 317.114 151.296C316.435 152.988 315.881 154.599 315.506 156.103C314.746 159.11 314.478 161.625 314.424 163.361C314.362 164.229 314.415 164.91 314.398 165.366C314.398 165.823 314.38 166.064 314.371 166.064C314.353 166.064 314.335 165.823 314.308 165.366C314.299 164.91 314.21 164.229 314.255 163.352C314.255 161.607 314.469 159.065 315.193 156.013C315.55 154.491 316.095 152.854 316.765 151.144C317.489 149.452 318.329 147.662 319.446 145.908C321.617 142.382 324.699 138.9 328.604 136.125C332.544 133.396 336.859 131.686 340.907 130.845C342.926 130.397 344.892 130.218 346.732 130.111C348.573 130.066 350.288 130.111 351.843 130.299C354.952 130.657 357.409 131.319 359.044 131.919C359.875 132.178 360.483 132.492 360.912 132.662C361.332 132.841 361.555 132.948 361.546 132.957L361.537 132.966Z" fill="white"/>
<path d="M372.26 118.449C372.305 118.52 371.411 118.986 370.16 119.979C368.91 120.964 367.346 122.557 366.104 124.651C364.871 126.746 364.237 128.885 363.978 130.46C363.71 132.035 363.736 133.038 363.647 133.038C363.611 133.038 363.584 132.787 363.567 132.34C363.531 131.883 363.567 131.221 363.647 130.415C363.736 129.601 363.942 128.652 364.263 127.623C364.603 126.602 365.077 125.502 365.702 124.419C366.345 123.345 367.078 122.405 367.811 121.608C368.561 120.829 369.294 120.185 369.964 119.72C370.625 119.245 371.197 118.905 371.608 118.717C372.019 118.52 372.251 118.422 372.26 118.449Z" fill="white"/>
<path d="M431.453 61.4707C431.453 61.4707 431.247 61.6408 430.845 61.9272C430.398 62.2315 429.8 62.6432 429.049 63.1534C428.656 63.4219 428.218 63.7083 427.745 64.0305C427.271 64.3617 426.789 64.7465 426.244 65.1493C425.18 65.9638 423.921 66.8319 422.652 67.9507C422 68.4967 421.329 69.0606 420.624 69.6513C419.918 70.242 419.239 70.9222 418.506 71.5935C417.023 72.9092 415.576 74.4666 414.03 76.0687C411.028 79.3624 407.936 83.1842 405.068 87.4714C402.245 91.7855 399.949 96.1264 398.099 100.19C397.233 102.248 396.366 104.182 395.74 106.07C395.41 107.01 395.052 107.896 394.784 108.782C394.516 109.659 394.266 110.51 394.016 111.324C393.489 112.926 393.185 114.43 392.846 115.728C392.694 116.381 392.524 116.981 392.408 117.545C392.301 118.108 392.202 118.619 392.113 119.093C391.934 119.988 391.791 120.704 391.693 121.232C391.595 121.724 391.532 121.975 391.514 121.975C391.496 121.975 391.532 121.715 391.604 121.223C391.684 120.686 391.8 119.97 391.943 119.066C392.024 118.592 392.104 118.073 392.202 117.509C392.31 116.945 392.461 116.336 392.604 115.674C392.917 114.367 393.203 112.855 393.712 111.235C393.945 110.42 394.195 109.57 394.454 108.675C394.713 107.789 395.07 106.894 395.392 105.945C396.009 104.047 396.866 102.096 397.724 100.02C399.565 95.9295 401.87 91.5528 404.702 87.2208C407.579 82.9157 410.697 79.0849 413.735 75.7823C415.299 74.1802 416.764 72.6318 418.265 71.3161C419.006 70.6537 419.694 69.9735 420.409 69.3828C421.124 68.801 421.812 68.2372 422.464 67.7001C423.751 66.5992 425.028 65.74 426.11 64.9434C426.655 64.5496 427.155 64.1737 427.637 63.8515C428.12 63.5472 428.567 63.2608 428.969 63.0102C429.746 62.5268 430.362 62.142 430.818 61.8556C431.247 61.596 431.47 61.4707 431.479 61.4797L431.453 61.4707Z" fill="white"/>
<path d="M306.322 164.131C306.322 164.265 304.884 164.131 303.517 165.08C302.123 165.993 301.703 167.38 301.578 167.326C301.524 167.317 301.542 166.95 301.774 166.413C302.007 165.876 302.507 165.205 303.249 164.695C303.999 164.194 304.812 163.988 305.393 163.97C305.983 163.952 306.322 164.077 306.313 164.131H306.322Z" fill="white"/>
<path d="M79.0665 27.388H-36.6738L-3.51708 22.7786C-3.51708 22.7786 12.5565 9.31726 21.1964 8.9503C43.6136 8.00157 42.9256 18.6793 42.9256 18.6793C54.1387 15.0723 66.3971 19.6101 79.0665 27.3969V27.388Z" fill="#FF725E"/>
<path opacity="0.5" d="M-36.6738 27.3879L-2.53426 25.6426L79.0665 27.3879H-36.6738Z" fill="white"/>
<path d="M369.758 27.388H444.738L423.259 22.7786C423.259 22.7786 412.85 9.31726 407.248 8.9503C392.72 8.00157 393.176 18.6793 393.176 18.6793C385.912 15.0723 377.969 19.6101 369.758 27.3969V27.388Z" fill="#FF725E"/>
<path opacity="0.5" d="M369.758 27.3882C369.758 27.3882 377.075 25.9293 381.552 25.6429C386.028 25.3565 444.738 27.3882 444.738 27.3882H369.758Z" fill="white"/>
<path d="M264.282 110.501C262.406 105.497 260.503 100.414 257.349 96.0995C254.204 91.7854 249.593 88.25 244.304 87.5967C239.006 86.9433 233.136 89.8074 231.411 94.8733C230.652 83.4706 229.035 71.7725 223.343 61.8734C217.643 51.9744 207.02 44.1965 195.628 44.8947C184.888 45.548 175.703 53.5407 170.593 63.0191C165.482 72.4975 163.731 83.3811 162.051 94.023C157.986 89.0198 149.391 90.595 145.138 95.4461C140.894 100.297 139.813 107.082 138.91 113.472H283.974L264.273 110.51L264.282 110.501Z" fill="#FF725E"/>
<path d="M283.984 113.463H138.92C138.92 113.463 159.979 111.02 167.949 111.387C175.91 111.754 255.938 112.407 255.938 112.407L283.993 113.463H283.984Z" fill="white"/>
<path d="M276.827 311.105L262.746 309.377L350.012 307.014L339.898 284.943H121.22L109.543 315.884L179.546 319.097L284.663 327.063L107.899 321.344C107.899 321.344 99.2053 351.56 98.9551 352.285L374.448 353.297L353.193 312.966L276.836 311.087L276.827 311.105Z" fill="#FF725E"/>
<path opacity="0.8" d="M276.827 311.105L262.746 309.377L350.012 307.014L339.898 284.943H121.22L109.543 315.884L179.546 319.097L284.663 327.063L107.899 321.344C107.899 321.344 99.2053 351.56 98.9551 352.285L374.448 353.297L353.193 312.966L276.836 311.087L276.827 311.105Z" fill="white"/>
<path d="M548.576 284.943C548.576 285.068 402.601 285.175 222.566 285.175C42.5316 285.175 -103.471 285.068 -103.471 284.943C-103.471 284.817 42.478 284.71 222.566 284.71C402.654 284.71 548.576 284.817 548.576 284.943Z" fill="#263238"/>
<path d="M140.68 289.069C142.404 289.069 282.215 290.796 282.215 290.796L263.327 293.517L274.102 295.97L251.211 296.829L246.047 299.201L277.908 301.572L169.619 302.87L212.89 297.697L202.168 296.927L185.326 293.383L206.243 292.166L140.68 289.069Z" fill="#FF725E"/>
<path d="M184.684 313.763C184.684 313.763 203.858 310.326 208.486 308.795C213.114 307.265 270.975 308.795 270.975 308.795C270.975 308.795 185.515 312.993 184.684 313.763Z" fill="#FF725E"/>
<path d="M205.895 318.623L253.686 317.549C253.686 317.549 214.07 313.45 205.895 318.623Z" fill="#FF725E"/>
<path d="M301.111 301.152L290.926 290.259H305.195V276.986H318.096V290.599H323.189V284.817H326.933V290.939H336.1V276.986H339.495V290.599H370.409L364.289 301.152H301.111Z" fill="#FF725E"/>
<path opacity="0.5" d="M301.111 301.152L290.926 290.259H305.195V276.986H318.096V290.599H323.189V284.817H326.933V290.939H336.1V276.986H339.495V290.599H370.409L364.289 301.152H301.111Z" fill="black"/>
<path d="M301.111 301.151L302.184 301.339L316.586 303.944L335.564 305.277L329.104 308.124H361.751L341.067 305.841L342.774 304.633L364.289 301.151" fill="#FF725E"/>
<path d="M290.926 290.259L306.222 291.638V278.552L318.096 276.986H305.195V290.259H290.926Z" fill="#FF725E"/>
<path d="M318.096 276.986C318.096 276.986 317.757 277.03 317.14 277.057C316.452 277.075 315.559 277.093 314.469 277.12C312.101 277.138 308.893 277.174 305.159 277.2L305.373 276.986C305.373 279.232 305.382 281.685 305.391 284.253C305.391 286.366 305.391 288.406 305.382 290.286V290.51H305.159C301.093 290.474 297.573 290.447 294.982 290.429C293.785 290.402 292.793 290.384 292.043 290.366C291.355 290.34 290.988 290.322 290.988 290.295C290.988 290.268 291.364 290.241 292.043 290.223C292.802 290.205 293.785 290.187 294.982 290.161C297.573 290.143 301.093 290.107 305.159 290.08L304.935 290.304C304.935 288.424 304.935 286.383 304.926 284.271C304.926 281.702 304.935 279.25 304.944 277.004V276.78H305.159C308.893 276.816 312.11 276.842 314.469 276.86C315.559 276.887 316.452 276.905 317.14 276.923C317.766 276.941 318.096 276.968 318.096 276.995V276.986Z" fill="white"/>
<path d="M439.09 355.337L497.291 389.903H516.893L452.09 355.337H439.09Z" fill="#FF725E"/>
<path opacity="0.5" d="M439.09 355.337L497.291 389.903H516.893L452.09 355.337H439.09Z" fill="white"/>
<path d="M57.2658 355.337L7.89258 391.46H26.3875L69.7655 355.337H57.2658Z" fill="#FF725E"/>
<path d="M219.922 355.847H223.549L188.48 390.162H184.656L219.922 355.847Z" fill="#FF725E"/>
<path d="M81.4611 355.847H85.0975L42.5146 390.162H38.6816L81.4611 355.847Z" fill="#FF725E"/>
<path d="M125.733 355.847H129.36L89.1806 390.162H85.3477L125.733 355.847Z" fill="#FF725E"/>
<path d="M169.996 355.847H173.632L135.856 390.162H132.023L169.996 355.847Z" fill="#FF725E"/>
<path d="M0.986126 355.185H4.62255L-45.9658 391.612H-49.7988L0.986126 355.185Z" fill="#FF725E"/>
<path d="M45.2495 355.185H48.886L0.709942 391.612H-3.12305L45.2495 355.185Z" fill="#FF725E"/>
<path d="M426.609 355.587H430.246L486.168 389.903H482.335L426.609 355.587Z" fill="#FF725E"/>
<path d="M288.148 355.587H291.785L340.193 389.903H336.36L288.148 355.587Z" fill="#FF725E"/>
<path d="M332.42 355.587H336.056L386.859 389.903H383.026L332.42 355.587Z" fill="#FF725E"/>
<path d="M376.684 355.587H380.32L433.535 389.903H429.702L376.684 355.587Z" fill="#FF725E"/>
<g opacity="0.5">
<path d="M219.922 355.847H223.549L188.48 390.162H184.656L219.922 355.847Z" fill="white"/>
<path d="M81.4611 355.847H85.0975L42.5146 390.162H38.6816L81.4611 355.847Z" fill="white"/>
<path d="M125.733 355.847H129.36L89.1806 390.162H85.3477L125.733 355.847Z" fill="white"/>
<path d="M169.996 355.847H173.632L135.856 390.162H132.023L169.996 355.847Z" fill="white"/>
<path d="M0.986126 355.185H4.62255L-45.9658 391.612H-49.7988L0.986126 355.185Z" fill="white"/>
<path d="M45.2495 355.185H48.886L0.709942 391.612H-3.12305L45.2495 355.185Z" fill="white"/>
<path d="M426.609 355.587H430.246L486.168 389.903H482.335L426.609 355.587Z" fill="white"/>
<path d="M288.148 355.587H291.785L340.193 389.903H336.36L288.148 355.587Z" fill="white"/>
<path d="M332.42 355.587H336.056L386.859 389.903H383.026L332.42 355.587Z" fill="white"/>
<path d="M376.682 355.587H380.318L433.533 389.903H429.7L376.682 355.587Z" fill="white"/>
</g>
<path opacity="0.5" d="M57.2658 355.337L7.89258 391.46H26.3875L69.7655 355.337H57.2658Z" fill="white"/>
<path d="M-1.73026 331.627H51.8691V326.454H-1.73026V331.627Z" fill="#FF725E"/>
<path d="M46.4007 355.337H50.0371V330.303H46.4007V355.337Z" fill="#FF725E"/>
<path d="M0.646772 355.337H4.2832L4.2832 330.303H0.646772L0.646772 355.337Z" fill="#FF725E"/>
<path d="M228.474 326.454H74.2695V331.627H228.474V326.454Z" fill="#FF725E"/>
<path d="M82.8298 330.303H79.1934V355.337H82.8298V330.303Z" fill="#FF725E"/>
<path d="M221.281 330.303H217.645V355.337H221.281V330.303Z" fill="#FF725E"/>
<path d="M177.019 330.303H173.383V355.337H177.019V330.303Z" fill="#FF725E"/>
<path d="M132.748 330.303H129.111V355.337H132.748V330.303Z" fill="#FF725E"/>
<path d="M437.439 326.454H283.234V331.627H437.439V326.454Z" fill="#FF725E"/>
<path d="M291.785 330.303H288.148V355.337H291.785V330.303Z" fill="#FF725E"/>
<path d="M430.246 330.303H426.609V355.337H430.246V330.303Z" fill="#FF725E"/>
<path d="M385.974 330.303H382.338V355.337H385.974V330.303Z" fill="#FF725E"/>
<path d="M341.713 330.303H338.076V355.337H341.713V330.303Z" fill="#FF725E"/>
<g opacity="0.3">
<path d="M-1.73026 331.627H51.8691V326.454H-1.73026V331.627Z" fill="black"/>
<path d="M46.4007 355.337H50.0371V330.303H46.4007V355.337Z" fill="black"/>
<path d="M0.646772 355.337H4.2832L4.2832 330.303H0.646772L0.646772 355.337Z" fill="black"/>
</g>
<g opacity="0.3">
<path d="M228.474 326.454H74.2695V331.627H228.474V326.454Z" fill="black"/>
<path d="M82.8298 330.303H79.1934V355.337H82.8298V330.303Z" fill="black"/>
<path d="M221.281 330.303H217.645V355.337H221.281V330.303Z" fill="black"/>
<path d="M177.019 330.303H173.383V355.337H177.019V330.303Z" fill="black"/>
<path d="M132.748 330.303H129.111V355.337H132.748V330.303Z" fill="black"/>
</g>
<g opacity="0.3">
<path d="M437.439 326.454H283.234V331.627H437.439V326.454Z" fill="black"/>
<path d="M291.785 330.303H288.148V355.337H291.785V330.303Z" fill="black"/>
<path d="M430.246 330.303H426.609V355.337H430.246V330.303Z" fill="black"/>
<path d="M385.974 330.303H382.338V355.337H385.974V330.303Z" fill="black"/>
<path d="M341.713 330.303H338.076V355.337H341.713V330.303Z" fill="black"/>
</g>
<path d="M227.83 326.955C227.83 327.081 194.289 327.188 152.922 327.188C111.554 327.188 78.0039 327.081 78.0039 326.955C78.0039 326.83 111.536 326.723 152.922 326.723C194.307 326.723 227.83 326.83 227.83 326.955Z" fill="#FF725E"/>
<path d="M-14.7762 132.009C-14.7762 132.009 0.716652 221.297 -5.56446 355.337H-20.959C-20.959 355.337 -7.93216 196.988 -20.0566 132.626L-14.7672 132.009H-14.7762Z" fill="#FF725E"/>
<path d="M-15.0156 133.306C-12.4424 128.223 -2.03342 117.688 -2.03342 117.688L-5.01761 115.093L1.72811 115.486L13.924 108.21L8.3666 104.146C10.0999 103.117 20.4106 105.48 20.4106 105.48L30.4711 102.786L23.1178 98.6061C29.9708 96.8249 39.0038 101.076 39.0038 101.076L53.5227 97.8632C47.1075 93.3522 24.2704 82.0927 3.58652 92.8957C-17.0974 103.699 -17.5352 132.975 -17.5352 132.975" fill="#FF725E"/>
<path d="M-16.3574 132.742C-16.1787 132.662 -15.2585 133.387 -15.0172 133.306C-10.1925 131.579 2.40549 133.987 2.40549 133.987L2.38763 131.006L7.15876 136.609L19.8014 140.395L16.4955 131.758C18.2825 132.268 25.6626 142.624 25.6626 142.624L35.0798 151.368L31.5952 139.205C33.954 142.122 40.8963 154.161 40.8963 154.161L52.5203 162.207C51.0104 154.51 42.2633 128.33 21.8921 121.223C1.52096 114.117 -16.3574 132.751 -16.3574 132.751V132.742Z" fill="#FF725E"/>
<g opacity="0.7">
<path d="M-14.7762 132.009C-14.7762 132.009 0.716652 221.297 -5.56446 355.337H-20.959C-20.959 355.337 -7.93216 196.988 -20.0566 132.626L-14.7672 132.009H-14.7762Z" fill="black"/>
<path d="M-15.0156 133.306C-12.4424 128.223 -2.03342 117.688 -2.03342 117.688L-5.01761 115.093L1.72811 115.486L13.924 108.21L8.3666 104.146C10.0999 103.117 20.4106 105.48 20.4106 105.48L30.4711 102.786L23.1178 98.6061C29.9708 96.8249 39.0038 101.076 39.0038 101.076L53.5227 97.8632C47.1075 93.3522 24.2704 82.0927 3.58652 92.8957C-17.0974 103.699 -17.5352 132.975 -17.5352 132.975" fill="black"/>
<path d="M-16.3574 132.742C-16.1787 132.662 -15.2585 133.387 -15.0172 133.306C-10.1925 131.579 2.40549 133.987 2.40549 133.987L2.38763 131.006L7.15876 136.609L19.8014 140.395L16.4955 131.758C18.2825 132.268 25.6626 142.624 25.6626 142.624L35.0798 151.368L31.5952 139.205C33.954 142.122 40.8963 154.161 40.8963 154.161L52.5203 162.207C51.0104 154.51 42.2633 128.33 21.8921 121.223C1.52096 114.117 -16.3574 132.751 -16.3574 132.751V132.742Z" fill="black"/>
</g>
<path d="M65.353 200.81C65.353 200.81 52.1653 259.121 57.2671 355.337H69.7667C69.7667 355.337 59.7956 247.459 69.6416 201.257L65.353 200.81Z" fill="#FF725E"/>
<path d="M97.3207 159.235C97.1509 159.298 96.9723 159.379 96.7668 159.477C92.6836 161.392 81.1578 169.645 81.1578 169.645L79.353 168.204L79.7729 173.61L74.144 182.632L70.9543 176.608C70.1502 177.87 71.821 187.044 71.821 187.044L70.5523 195.09L65.3255 187.277C63.9853 192.226 69.2925 201.257 69.2925 201.257L66.3798 210.727C62.6272 206.18 56.6588 190.812 65.111 175.802C73.5633 160.793 97.3207 159.235 97.3207 159.235Z" fill="#FF725E"/>
<path d="M63.7621 211.12L63.2617 210.637C63.2617 210.637 71.2315 189.881 90.8611 186.104C110.491 182.327 122.776 191.134 125.519 192.915C128.262 194.697 135.749 201.463 135.749 201.463L122.088 199.673C122.088 199.673 111.822 190.884 106.952 190.812C106.952 190.812 120.676 200.568 123.643 208.086C123.643 208.086 114.154 205.589 112.403 205.777C112.403 205.777 106.81 198.993 100.823 197.722L107.006 204.542L94.6494 202.725L89.8961 199.378L89.6459 202.546C89.6459 202.546 78.6205 201.248 63.771 211.12H63.7621Z" fill="#FF725E"/>
<path d="M63.752 211.049C63.886 211.004 64.0557 210.959 64.2344 210.924C67.8709 210.109 79.8791 209.85 79.8791 209.85L80.0757 207.845L83.1582 211.971L92.1018 215.444L90.297 209.384C91.5568 209.859 96.2207 217.368 96.2207 217.368L101.948 222.488L100.259 214.038C104.119 216.885 106.505 226.247 106.505 226.247L114.403 232.512C113.84 227.213 107.639 211.917 93.308 205.643C78.9767 199.369 63.7609 211.04 63.7609 211.04L63.752 211.049Z" fill="#FF725E"/>
<path d="M63.8064 210.986C61.2153 207.594 51.7713 201.025 51.7713 201.025L53.9156 198.903L48.5191 199.789L37.9582 195.699L42.0235 192.307C40.5225 191.734 32.4544 194.339 32.4544 194.339L24.0737 193.327L29.5685 189.693C23.8682 189.04 17.0152 192.88 17.0152 192.88L4.99805 191.895C9.70664 188.109 26.9685 178.04 44.7218 183.885C62.4751 189.729 65.7899 210.539 65.7899 210.539" fill="#FF725E"/>
<path d="M64.8347 210.467C64.6828 210.422 64.0127 211.031 63.8072 210.986C59.7419 210.189 49.8422 213.036 49.8422 213.036L49.5563 210.914L46.2773 215.336L36.4759 219.167L38.2628 212.713C36.8779 213.241 31.9728 221.27 31.9728 221.27L25.2718 228.341L26.8443 219.363C25.236 221.655 20.8669 230.847 20.8669 230.847L12.3164 237.622C12.7542 232.001 17.159 212.57 32.8484 205.687C48.5378 198.805 64.8258 210.467 64.8258 210.467H64.8347Z" fill="#FF725E"/>
<g opacity="0.5">
<path d="M65.353 200.81C65.353 200.81 52.1653 259.121 57.2671 355.337H69.7667C69.7667 355.337 59.7956 247.459 69.6416 201.257L65.353 200.81Z" fill="black"/>
<path d="M97.3207 159.235C97.1509 159.298 96.9723 159.379 96.7668 159.477C92.6836 161.392 81.1578 169.645 81.1578 169.645L79.353 168.204L79.7729 173.61L74.144 182.632L70.9543 176.608C70.1502 177.87 71.821 187.044 71.821 187.044L70.5523 195.09L65.3255 187.277C63.9853 192.226 69.2925 201.257 69.2925 201.257L66.3798 210.727C62.6272 206.18 56.6588 190.812 65.111 175.802C73.5633 160.793 97.3207 159.235 97.3207 159.235Z" fill="black"/>
<path d="M63.7621 211.12L63.2617 210.637C63.2617 210.637 71.2315 189.881 90.8611 186.104C110.491 182.327 122.776 191.134 125.519 192.915C128.262 194.697 135.749 201.463 135.749 201.463L122.088 199.673C122.088 199.673 111.822 190.884 106.952 190.812C106.952 190.812 120.676 200.568 123.643 208.086C123.643 208.086 114.154 205.589 112.403 205.777C112.403 205.777 106.81 198.993 100.823 197.722L107.006 204.542L94.6494 202.725L89.8961 199.378L89.6459 202.546C89.6459 202.546 78.6205 201.248 63.771 211.12H63.7621Z" fill="black"/>
<path d="M63.752 211.049C63.886 211.004 64.0557 210.959 64.2344 210.924C67.8709 210.109 79.8791 209.85 79.8791 209.85L80.0757 207.845L83.1582 211.971L92.1018 215.444L90.297 209.384C91.5568 209.859 96.2207 217.368 96.2207 217.368L101.948 222.488L100.259 214.038C104.119 216.885 106.505 226.247 106.505 226.247L114.403 232.512C113.84 227.213 107.639 211.917 93.308 205.643C78.9767 199.369 63.7609 211.04 63.7609 211.04L63.752 211.049Z" fill="black"/>
<path d="M63.8064 210.986C61.2153 207.594 51.7713 201.025 51.7713 201.025L53.9156 198.903L48.5191 199.789L37.9582 195.699L42.0235 192.307C40.5225 191.734 32.4544 194.339 32.4544 194.339L24.0737 193.327L29.5685 189.693C23.8682 189.04 17.0152 192.88 17.0152 192.88L4.99805 191.895C9.70664 188.109 26.9685 178.04 44.7218 183.885C62.4751 189.729 65.7899 210.539 65.7899 210.539" fill="black"/>
<path d="M64.8347 210.467C64.6828 210.422 64.0127 211.031 63.8072 210.986C59.7419 210.189 49.8422 213.036 49.8422 213.036L49.5563 210.914L46.2773 215.336L36.4759 219.167L38.2628 212.713C36.8779 213.241 31.9728 221.27 31.9728 221.27L25.2718 228.341L26.8443 219.363C25.236 221.655 20.8669 230.847 20.8669 230.847L12.3164 237.622C12.7542 232.001 17.159 212.57 32.8484 205.687C48.5378 198.805 64.8258 210.467 64.8258 210.467H64.8347Z" fill="black"/>
</g>
<path d="M97.3468 185.057C105.611 185.398 119.943 187.993 129.36 200.685L137.053 201.696C137.053 201.696 129.351 194.733 126.519 192.907C124.008 191.278 113.751 183.965 97.3379 185.057H97.3468Z" fill="#FF725E"/>
<path d="M67.9519 211.157L67.8804 210.978C65.7897 217.413 64.9409 223.034 64.8337 228.413C64.4316 247.021 63.4041 282.679 63.7526 303.873C64.1457 327.26 68.3629 347.327 69.4887 352.294C68.0413 335.969 61.6708 257.591 67.9519 211.157Z" fill="#FF725E"/>
<path d="M93.299 205.652C93.2364 205.625 93.1739 205.607 93.1113 205.581C96.6227 208.131 107.3 216.76 109.909 228.968L114.394 232.53C113.813 227.079 108.05 212.114 93.299 205.661V205.652Z" fill="#FF725E"/>
<path d="M46.0698 148.567C47.5708 153.015 48.4286 156.881 48.911 159.701L52.5207 162.198C51.0107 154.501 42.2636 128.321 21.8924 121.214C17.9076 119.827 14.0209 119.424 10.3398 119.675C10.3398 119.675 17.5591 121.554 25.5467 125.027C33.5433 128.5 42.9516 139.321 46.0698 148.576V148.567Z" fill="#FF725E"/>
<path d="M19.257 105.22C19.9628 105.372 20.4096 105.471 20.4096 105.471L30.4701 102.777L27.9683 101.354L20.213 102.83L19.248 105.22H19.257Z" fill="#FF725E"/>
<path d="M35.8945 99.8498C37.7887 100.494 39.0128 101.067 39.0128 101.067L53.5317 97.8539C51.0568 96.1175 46.1248 93.3698 39.8258 91.2754L49.5379 97.2542L35.8945 99.8498Z" fill="#FF725E"/>
<path d="M40.8978 154.152C40.8978 154.152 40.9782 154.188 41.1212 154.277C41.282 154.385 41.4875 154.51 41.7377 154.671C42.3006 155.047 43.0868 155.575 44.0786 156.237C46.1336 157.634 49.0373 159.621 52.6202 162.064L52.3611 162.252C51.28 158.555 49.9219 154.223 48.1796 149.534C47.2951 147.197 46.3301 144.763 45.0971 142.364C43.8284 139.992 42.2827 137.647 40.5851 135.356C36.9755 130.55 32.6957 126.576 28.1748 124.016C23.6091 121.519 18.9631 120.382 15.0675 119.953C11.1452 119.523 7.93763 119.899 5.7933 120.338C5.25721 120.454 4.78367 120.561 4.36374 120.66C3.97061 120.776 3.62216 120.875 3.33625 120.964C3.07714 121.036 2.87164 121.098 2.70188 121.143C2.55893 121.179 2.47852 121.197 2.47852 121.188C2.47852 121.188 2.55 121.152 2.68402 121.098C2.85378 121.036 3.05927 120.964 3.30944 120.875C3.59536 120.776 3.93487 120.66 4.328 120.525C4.74793 120.418 5.22147 120.302 5.75756 120.159C7.91082 119.657 11.1452 119.228 15.1033 119.621C19.0435 120.006 23.7432 121.125 28.3892 123.64C32.9906 126.227 37.3239 130.228 40.9693 135.079C42.6848 137.388 44.2215 139.742 45.5171 142.149C46.759 144.584 47.715 147.027 48.5995 149.381C50.3329 154.089 51.6552 158.439 52.7006 162.153L52.8346 162.619L52.4415 162.341C48.8944 159.844 46.0174 157.822 43.9803 156.389C43.0153 155.691 42.247 155.145 41.693 154.752C41.4518 154.573 41.2641 154.429 41.1033 154.313C40.9693 154.215 40.9067 154.161 40.9157 154.152H40.8978Z" fill="white"/>
<path d="M22.92 99.17C22.9379 99.1163 23.7599 99.3759 25.0822 99.9218C26.4046 100.459 28.2183 101.309 30.2018 102.428L30.6486 102.679L30.1572 102.84C29.5943 103.028 29.0135 103.216 28.4149 103.412C25.8417 104.245 23.5097 104.979 21.8121 105.489C20.1145 105.999 19.0513 106.277 19.0334 106.223C19.0156 106.16 20.0341 105.766 21.7139 105.176C23.3846 104.585 25.7077 103.806 28.2809 102.965C28.8795 102.768 29.4602 102.58 30.0231 102.401L29.9785 102.822C28.0218 101.694 26.2527 100.808 24.9661 100.19C23.6884 99.5817 22.9022 99.2237 22.929 99.17H22.92Z" fill="white"/>
<path d="M31.7559 90.5775C31.7559 90.5775 31.9078 90.5596 32.1847 90.5596C32.4617 90.5596 32.8816 90.5596 33.4088 90.6043C34.472 90.6759 35.9999 90.8191 37.8761 91.1682C41.6109 91.8395 46.7305 93.3968 51.7339 96.4041C52.3861 96.78 53.0026 97.1918 53.5834 97.5766L54.048 97.872L53.503 97.9973C48.3476 99.1519 43.7731 100.19 40.4583 100.861C39.6184 101.014 38.8411 101.067 38.1621 100.996C37.483 100.924 36.9201 100.745 36.4913 100.53C36.0624 100.315 35.7765 100.074 35.6067 99.8948C35.428 99.7158 35.3655 99.5994 35.3744 99.5994C35.4102 99.5636 35.7229 100.002 36.5627 100.378C37.4026 100.763 38.7696 100.915 40.4047 100.557C43.7552 99.7784 48.303 98.7312 53.4047 97.5408L53.3243 97.9615C52.7435 97.5856 52.136 97.1828 51.4927 96.8069C46.5518 93.8264 41.5036 92.2422 37.8136 91.4904C35.9641 91.1055 34.4452 90.9086 33.3909 90.7833C32.3366 90.6759 31.7559 90.6133 31.7559 90.5775Z" fill="white"/>
<path d="M68.0498 210.422C68.0498 210.422 68.0498 210.512 68.0498 210.7C68.0409 210.906 68.023 211.165 68.0052 211.496C67.9516 212.23 67.8801 213.251 67.7907 214.557C67.5852 217.216 67.3172 221.064 67.0134 225.817C66.4059 235.331 65.7625 248.479 65.5749 263.023C65.4052 277.568 65.7357 290.734 66.1289 300.257C66.3254 305.018 66.5131 308.867 66.656 311.534C66.7186 312.841 66.7722 313.87 66.8079 314.604C66.8169 314.935 66.8258 315.195 66.8347 315.401C66.8347 315.58 66.8347 315.669 66.8347 315.678C66.8347 315.687 66.8168 315.589 66.79 315.41C66.7722 315.204 66.7454 314.944 66.7186 314.613C66.665 313.879 66.5845 312.859 66.4773 311.552C66.2718 308.894 66.0395 305.045 65.7983 300.284C65.3158 290.761 64.9316 277.586 65.1014 263.023C65.2801 248.47 65.977 235.313 66.6739 225.799C67.0223 221.046 67.344 217.198 67.6031 214.548C67.7282 213.251 67.8354 212.221 67.9069 211.496C67.9426 211.165 67.9784 210.906 67.9962 210.7C68.023 210.521 68.032 210.431 68.0409 210.431L68.0498 210.422Z" fill="white"/>
<path d="M137.061 201.696C137.061 201.696 136.909 201.597 136.659 201.383C136.373 201.132 136.015 200.81 135.578 200.416C134.64 199.575 133.281 198.366 131.53 196.943C129.779 195.529 127.662 193.882 125.16 192.289C122.667 190.687 119.781 189.13 116.547 188.02C110.033 185.889 103.77 185.326 99.3027 185.236C97.0601 185.209 95.2374 185.308 93.9955 185.46C92.7446 185.594 92.0656 185.719 92.0566 185.675C92.0566 185.657 92.2175 185.612 92.5481 185.54C92.8697 185.478 93.3522 185.352 93.9776 185.272C95.2285 185.066 97.0511 184.914 99.3116 184.896C103.815 184.896 110.114 185.415 116.708 187.563C119.987 188.691 122.899 190.275 125.401 191.913C127.912 193.542 130.02 195.225 131.754 196.675C133.478 198.134 134.809 199.387 135.712 200.273C136.167 200.711 136.507 201.06 136.739 201.302C136.971 201.544 137.088 201.678 137.07 201.687L137.061 201.696Z" fill="white"/>
<path d="M114.912 232.995C114.912 232.995 114.742 232.521 114.519 231.662C114.411 231.223 114.277 230.695 114.081 230.095C113.884 229.496 113.706 228.798 113.411 228.055C113.143 227.303 112.839 226.488 112.446 225.638C112.097 224.77 111.624 223.884 111.159 222.944C110.159 221.091 108.935 219.122 107.46 217.198C105.959 215.283 104.369 213.609 102.823 212.177C102.028 211.488 101.295 210.807 100.536 210.253C99.8122 209.662 99.0974 209.161 98.4362 208.713C97.7929 208.239 97.1675 207.89 96.6314 207.55C96.0953 207.2 95.6218 206.941 95.2286 206.735C94.4513 206.305 94.0225 206.055 94.0314 206.019C94.0493 205.992 94.496 206.189 95.3091 206.574C95.7201 206.762 96.2115 207.004 96.7565 207.326C97.3104 207.648 97.9537 207.979 98.6149 208.436C99.2939 208.874 100.027 209.358 100.768 209.939C101.537 210.485 102.296 211.157 103.109 211.846C104.682 213.278 106.308 214.969 107.827 216.903C109.319 218.854 110.552 220.85 111.535 222.738C111.999 223.696 112.455 224.6 112.794 225.477C113.178 226.345 113.464 227.178 113.715 227.938C113.992 228.69 114.152 229.406 114.331 230.015C114.51 230.632 114.617 231.169 114.697 231.608C114.867 232.494 114.948 232.977 114.912 232.986V232.995Z" fill="white"/>
<path d="M444.309 188.557C444.309 188.557 457.398 255.237 452.091 355.337H439.082C439.082 355.337 450.081 237.077 439.842 189.013L444.309 188.548V188.557Z" fill="#FF725E"/>
<path d="M411.055 145.3C411.224 145.363 411.421 145.452 411.635 145.551C415.879 147.546 427.879 156.13 427.879 156.13L429.755 154.635L429.317 160.256L435.169 169.636L438.493 163.362C439.333 164.677 437.591 174.218 437.591 174.218L438.904 182.596L444.345 174.46C445.739 179.616 440.218 189.004 440.218 189.004L443.247 198.859C447.151 194.124 453.361 178.148 444.569 162.529C435.777 146.911 411.055 145.291 411.055 145.291V145.3Z" fill="#FF725E"/>
<path d="M445.972 199.279L446.49 198.769C446.49 198.769 438.199 177.172 417.783 173.243C397.358 169.313 384.581 178.479 381.731 180.331C378.881 182.184 371.09 189.228 371.09 189.228L385.296 187.366C385.296 187.366 395.973 178.219 401.048 178.147C401.048 178.147 386.77 188.297 383.688 196.12C383.688 196.12 393.561 193.515 395.383 193.721C395.383 193.721 401.2 186.659 407.436 185.344L401.003 192.432L413.86 190.544L418.81 187.062L419.069 190.356C419.069 190.356 430.541 189.004 445.99 199.279H445.972Z" fill="#FF725E"/>
<path d="M445.981 199.208C445.838 199.163 445.668 199.118 445.481 199.073C441.701 198.223 429.211 197.955 429.211 197.955L429.005 195.869L425.797 200.156L416.496 203.772L418.373 197.462C417.059 197.955 412.217 205.768 412.217 205.768L406.257 211.094L408.008 202.304C403.988 205.267 401.513 215.005 401.513 215.005L393.293 221.53C393.874 216.016 400.325 200.103 415.237 193.578C430.149 187.053 445.981 199.199 445.981 199.199V199.208Z" fill="#FF725E"/>
<path d="M445.917 199.136C448.607 195.61 458.444 188.781 458.444 188.781L456.219 186.579L461.83 187.501L472.811 183.249L468.576 179.723C470.139 179.123 478.529 181.835 478.529 181.835L487.249 180.779L481.531 176.993C487.464 176.313 494.585 180.305 494.585 180.305L507.093 179.275C502.188 175.337 484.238 164.865 465.77 170.934C447.302 177.011 443.854 198.662 443.854 198.662" fill="#FF725E"/>
<g opacity="0.7">
<path d="M444.309 188.557C444.309 188.557 457.398 255.237 452.091 355.337H439.082C439.082 355.337 450.081 237.077 439.842 189.013L444.309 188.548V188.557Z" fill="black"/>
<path d="M411.055 145.3C411.224 145.363 411.421 145.452 411.635 145.551C415.879 147.546 427.879 156.13 427.879 156.13L429.755 154.635L429.317 160.256L435.169 169.636L438.493 163.362C439.333 164.677 437.591 174.218 437.591 174.218L438.904 182.596L444.345 174.46C445.739 179.616 440.218 189.004 440.218 189.004L443.247 198.859C447.151 194.124 453.361 178.148 444.569 162.529C435.777 146.911 411.055 145.291 411.055 145.291V145.3Z" fill="black"/>
<path d="M445.972 199.279L446.49 198.769C446.49 198.769 438.199 177.172 417.783 173.243C397.358 169.313 384.581 178.479 381.731 180.331C378.881 182.184 371.09 189.228 371.09 189.228L385.296 187.366C385.296 187.366 395.973 178.219 401.048 178.147C401.048 178.147 386.77 188.297 383.688 196.12C383.688 196.12 393.561 193.515 395.383 193.721C395.383 193.721 401.2 186.659 407.436 185.344L401.003 192.432L413.86 190.544L418.81 187.062L419.069 190.356C419.069 190.356 430.541 189.004 445.99 199.279H445.972Z" fill="black"/>
<path d="M445.981 199.208C445.838 199.163 445.668 199.118 445.481 199.073C441.701 198.223 429.211 197.955 429.211 197.955L429.005 195.869L425.797 200.156L416.496 203.772L418.373 197.462C417.059 197.955 412.217 205.768 412.217 205.768L406.257 211.094L408.008 202.304C403.988 205.267 401.513 215.005 401.513 215.005L393.293 221.53C393.874 216.016 400.325 200.103 415.237 193.578C430.149 187.053 445.981 199.199 445.981 199.199V199.208Z" fill="black"/>
<path d="M445.917 199.136C448.607 195.61 458.444 188.781 458.444 188.781L456.219 186.579L461.83 187.501L472.811 183.249L468.576 179.723C470.139 179.123 478.529 181.835 478.529 181.835L487.249 180.779L481.531 176.993C487.464 176.313 494.585 180.305 494.585 180.305L507.093 179.275C502.188 175.337 484.238 164.865 465.77 170.934C447.302 177.011 443.854 198.662 443.854 198.662" fill="black"/>
</g>
<path d="M415.619 173.073L417.772 173.243C417.772 173.243 416.977 173.135 415.619 173.073Z" fill="#FF725E"/>
<path d="M439.287 353.055C439.287 353.055 445.524 328.477 445.97 301.143C446.426 273.809 444.844 206.601 444.844 206.601L441.583 199.279C448.07 247.423 440.636 337.66 439.287 353.055Z" fill="#FF725E"/>
<path d="M416.638 193.032C416.174 193.202 415.709 193.381 415.244 193.587C400.332 200.111 393.882 216.025 393.301 221.539L398.545 217.377C401.771 202.6 416.638 193.032 416.638 193.032Z" fill="#FF725E"/>
<path d="M381.721 180.34C378.871 182.193 371.08 189.237 371.08 189.237L379.407 188.145C391.013 173.27 409.392 172.777 415.62 173.082L406.015 172.321C392.461 172.831 383.982 178.872 381.721 180.34Z" fill="#FF725E"/>
<path d="M407.418 172.491C407.418 172.491 406.856 172.598 405.828 172.697C405.319 172.741 404.693 172.804 403.97 172.92C403.246 173.028 402.424 173.117 401.522 173.296C399.708 173.601 397.581 174.093 395.258 174.764C392.944 175.471 390.434 176.375 387.878 177.53C385.341 178.702 383.018 180.018 380.963 181.316C378.935 182.641 377.166 183.929 375.754 185.102C375.03 185.666 374.423 186.23 373.869 186.713C373.315 187.187 372.859 187.617 372.484 187.975C371.733 188.682 371.313 189.067 371.286 189.04C371.26 189.022 371.644 188.592 372.35 187.841C372.698 187.465 373.136 187.008 373.681 186.516C374.217 186.015 374.816 185.424 375.53 184.851C376.924 183.634 378.684 182.309 380.722 180.958C382.777 179.633 385.117 178.3 387.673 177.109C390.246 175.946 392.783 175.042 395.124 174.353C397.474 173.699 399.627 173.234 401.459 172.965C402.37 172.804 403.201 172.732 403.934 172.652C404.658 172.562 405.292 172.527 405.81 172.509C406.838 172.464 407.41 172.455 407.41 172.482L407.418 172.491Z" fill="white"/>
<path d="M415.96 192.996C415.96 192.996 415.513 193.3 414.682 193.775C414.262 194.007 413.753 194.294 413.181 194.67C412.609 195.037 411.939 195.422 411.242 195.932C410.536 196.415 409.768 196.952 408.982 197.588C408.169 198.187 407.373 198.903 406.516 199.646C404.845 201.168 403.103 202.958 401.45 204.981C399.815 207.021 398.439 209.107 397.304 211.058C396.768 212.051 396.232 212.991 395.812 213.904C395.356 214.808 394.999 215.667 394.668 216.464C394.32 217.251 394.079 217.985 393.846 218.63C393.605 219.265 393.426 219.829 393.292 220.286C393.006 221.199 392.828 221.709 392.801 221.7C392.774 221.7 392.881 221.172 393.123 220.232C393.23 219.758 393.382 219.194 393.605 218.54C393.819 217.887 394.034 217.135 394.373 216.339C394.686 215.533 395.026 214.647 395.472 213.734C395.874 212.803 396.402 211.845 396.938 210.843C398.063 208.856 399.448 206.744 401.092 204.685C402.763 202.636 404.532 200.846 406.23 199.324C407.105 198.59 407.918 197.874 408.749 197.283C409.554 196.657 410.34 196.129 411.063 195.663C411.769 195.171 412.457 194.804 413.047 194.455C413.637 194.097 414.164 193.837 414.593 193.623C415.459 193.193 415.942 192.978 415.96 193.005V192.996Z" fill="white"/>
<path d="M444.282 255.908C444.282 255.908 444.255 255.756 444.237 255.461C444.229 255.112 444.211 254.691 444.202 254.172C444.184 252.981 444.157 251.388 444.13 249.446C444.077 245.454 443.978 239.941 443.8 233.846C443.621 227.75 443.389 222.237 443.21 218.254C443.13 216.312 443.058 214.719 443.004 213.528C442.987 213.018 442.978 212.589 442.969 212.24C442.969 211.944 442.969 211.792 442.987 211.792C443.004 211.792 443.031 211.944 443.058 212.24C443.094 212.589 443.13 213.009 443.183 213.519C443.281 214.629 443.407 216.249 443.532 218.236C443.791 222.219 444.077 227.741 444.255 233.837C444.434 239.932 444.479 245.454 444.443 249.446C444.434 251.442 444.407 253.062 444.372 254.181C444.354 254.691 444.336 255.121 444.327 255.47C444.309 255.765 444.291 255.917 444.282 255.917V255.908Z" fill="white"/>
</g>
</g>
<defs>
<clipPath id="clip0_655_2515">
<rect width="444" height="393" rx="196.5" fill="white"/>
</clipPath>
<clipPath id="clip1_655_2515">
<rect width="653.155" height="393" fill="white" transform="translate(-104.578)"/>
</clipPath>
</defs>
</svg>
