<svg width="30" height="30" viewBox="0 0 30 30" fill="none" xmlns="http://www.w3.org/2000/svg">
<rect width="30" height="30" rx="15" fill="white"/>
<path d="M9.568 11.144C9.088 11.144 8.69333 11.0053 8.384 10.728C8.08533 10.44 7.936 10.088 7.936 9.672C7.936 9.24533 8.08533 8.89333 8.384 8.616C8.69333 8.328 9.088 8.184 9.568 8.184C10.0373 8.184 10.4213 8.328 10.72 8.616C11.0293 8.89333 11.184 9.24533 11.184 9.672C11.184 10.088 11.0293 10.44 10.72 10.728C10.4213 11.0053 10.0373 11.144 9.568 11.144ZM10.928 12.072V21H8.192V12.072H10.928ZM18.4507 11.976C19.4961 11.976 20.3281 12.3173 20.9468 13C21.5761 13.672 21.8908 14.6 21.8908 15.784V21H19.1708V16.152C19.1708 15.5547 19.0161 15.0907 18.7067 14.76C18.3974 14.4293 17.9814 14.264 17.4587 14.264C16.9361 14.264 16.5201 14.4293 16.2108 14.76C15.9014 15.0907 15.7467 15.5547 15.7467 16.152V21H13.0107V12.072H15.7467V13.256C16.0241 12.8613 16.3974 12.552 16.8667 12.328C17.3361 12.0933 17.8641 11.976 18.4507 11.976Z" fill="#FB635C"/>
</svg>
