<svg width="48" height="48" viewBox="0 0 48 48" fill="none" xmlns="http://www.w3.org/2000/svg">
<g filter="url(#filter0_d_199_1112)">
<rect x="4" width="40" height="40" rx="20" fill="white" shape-rendering="crispEdges"/>
<path d="M17.2225 14.68C16.6225 14.68 16.1292 14.5067 15.7425 14.16C15.3692 13.8 15.1825 13.36 15.1825 12.84C15.1825 12.3067 15.3692 11.8667 15.7425 11.52C16.1292 11.16 16.6225 10.98 17.2225 10.98C17.8092 10.98 18.2892 11.16 18.6625 11.52C19.0492 11.8667 19.2425 12.3067 19.2425 12.84C19.2425 13.36 19.0492 13.8 18.6625 14.16C18.2892 14.5067 17.8092 14.68 17.2225 14.68ZM18.9225 15.84V27H15.5025V15.84H18.9225ZM28.3009 15.72C29.6076 15.72 30.6476 16.1467 31.4209 17C32.2076 17.84 32.6009 19 32.6009 20.48V27H29.2009V20.94C29.2009 20.1933 29.0076 19.6133 28.6209 19.2C28.2343 18.7867 27.7143 18.58 27.0609 18.58C26.4076 18.58 25.8876 18.7867 25.5009 19.2C25.1143 19.6133 24.9209 20.1933 24.9209 20.94V27H21.5009V15.84H24.9209V17.32C25.2676 16.8267 25.7343 16.44 26.3209 16.16C26.9076 15.8667 27.5676 15.72 28.3009 15.72Z" fill="#5CA5FB"/>
</g>
<defs>
<filter id="filter0_d_199_1112" x="0" y="0" width="48" height="48" filterUnits="userSpaceOnUse" color-interpolation-filters="sRGB">
<feFlood flood-opacity="0" result="BackgroundImageFix"/>
<feColorMatrix in="SourceAlpha" type="matrix" values="0 0 0 0 0 0 0 0 0 0 0 0 0 0 0 0 0 0 127 0" result="hardAlpha"/>
<feOffset dy="4"/>
<feGaussianBlur stdDeviation="2"/>
<feComposite in2="hardAlpha" operator="out"/>
<feColorMatrix type="matrix" values="0 0 0 0 0.984314 0 0 0 0 0.388235 0 0 0 0 0.360784 0 0 0 0.25 0"/>
<feBlend mode="normal" in2="BackgroundImageFix" result="effect1_dropShadow_199_1112"/>
<feBlend mode="normal" in="SourceGraphic" in2="effect1_dropShadow_199_1112" result="shape"/>
</filter>
</defs>
</svg>
