<svg width="80" height="80" viewBox="0 0 80 80" fill="none" xmlns="http://www.w3.org/2000/svg">
<rect width="80" height="80" rx="20" fill="white"/>
<path d="M18.92 39.76C18.92 35.6 19.78 31.9 21.5 28.66C23.26 25.38 25.74 22.84 28.94 21.04C32.14 19.2 35.82 18.28 39.98 18.28C45.26 18.28 49.7 19.7 53.3 22.54C56.9 25.34 59.22 29.16 60.26 34H47.6C46.84 32.4 45.78 31.18 44.42 30.34C43.1 29.5 41.56 29.08 39.8 29.08C37.08 29.08 34.9 30.06 33.26 32.02C31.66 33.94 30.86 36.52 30.86 39.76C30.86 43.04 31.66 45.66 33.26 47.62C34.9 49.54 37.08 50.5 39.8 50.5C41.56 50.5 43.1 50.08 44.42 49.24C45.78 48.4 46.84 47.18 47.6 45.58H60.26C59.22 50.42 56.9 54.26 53.3 57.1C49.7 59.9 45.26 61.3 39.98 61.3C35.82 61.3 32.14 60.4 28.94 58.6C25.74 56.76 23.26 54.22 21.5 50.98C19.78 47.7 18.92 43.96 18.92 39.76Z" fill="#FB635C"/>
</svg>
